<?xml version="1.0" encoding="utf-8"?>
<!-- Generator: Adobe Illustrator 22.1.0, SVG Export Plug-In . SVG Version: 6.00 Build 0)  -->
<svg version="1.1" id="Layer_1" xmlns="http://www.w3.org/2000/svg" xmlns:xlink="http://www.w3.org/1999/xlink" x="0px" y="0px"
	 viewBox="0 0 639 240" style="enable-background:new 0 0 639 240;" xml:space="preserve">
<style type="text/css">
	.st0{fill:#A2A3A2;}
	.st1{fill:#8DC63F;}
	.st2{fill:#FFFFFF;}

		.sportz{
		fill:#8DC63F;
		transform-origin: center;
		transform: rotateX(-90deg);
		animation: anim-sportz 3s ease-in 1 forwards;
	}
	.interactive{
		fill:#A2A3A2;
		transform-origin: center;
		transform: rotateY(90deg);
		animation: anim-int 3s ease-in 1 forwards;
	}
	#logo-path{
		fill: none;
		stroke: #8DC63F;
		stroke-dasharray: 1999;
		stroke-dashoffset: 1999;
		fill-opacity: 0;
		animation: anim-logo 3s ease-in 1 forwards;
	}
	@keyframes anim-logo{
		0%{
			fill: none;
			stroke-dashoffset: 1999;
		}
		75%{
			fill-opacity: 0;
		}
		100%{
			fill: #8DC63F;
			stroke-dashoffset: 0;
			fill-opacity: 1;
		}
	}
	@keyframes anim-sportz{
		0%{
			transform: rotateX(-90deg);
		}
		100%{
			transform: rotateX(0deg);
		}
	}
	@keyframes anim-int{
		0%{
			transform: rotateY(90deg);
		}
		100%{
			transform: rotateY(0deg);
		}
	}
</style>
<g id="Layer_1_1_">
</g>
<path class="st0 interactive" d="M278.6,174.4h-5.8v-33h5.8V174.4z M317.1,141.4h-5.8v23.3l-18.4-23.3h-5.4v33h5.8v-23.1l18.2,23.1h5.5
	L317.1,141.4L317.1,141.4z M339.6,146.7h12v-5.4h-29.9v5.4h12v27.6h5.8v-27.6H339.6z M362.2,155.2v-8.4h18.1v-5.4h-23.9v33h23.9V169
	h-18.1v-8.4h16.1v-5.3h-16.1V155.2z M408.1,174.4h7.1l-8.8-12.1c4.1-1.8,6.7-5.4,6.7-10c0-7.2-5.3-11.2-13.2-11.2
	c-4.1,0-9.5,0.2-12.1,0.3v33h5.8v-10.7h4.7c0.8,0,1.6,0,2.4,0L408.1,174.4z M393.6,158.5v-12.1c2.2,0,4.4-0.1,6.5-0.1
	c4.4,0,7.3,1.8,7.3,5.9c0,3.7-3,6.3-6.9,6.3L393.6,158.5L393.6,158.5z M427.6,167.6H444l3,6.7h6.5l-15-33.2h-5.4l-15,33.2h6.6
	L427.6,167.6z M435.8,148.7l6,13.6h-11.9L435.8,148.7z M485.6,142.1c-3.6-1-7.5-1.5-11.5-1.5c-11,0-18.3,6.9-18.3,17.2
	c0,10.4,7.3,17.3,18.2,17.3c3.7,0,7.9-0.7,11.7-1.8l-1.1-5.1c-4,0.9-7.8,1.5-10.3,1.5c-7.4,0-12.3-4.8-12.3-11.8
	c0-6.6,4.5-11.5,12.9-11.5c2.7,0,5.7,0.5,9.6,1.4L485.6,142.1z M507.9,146.7h12v-5.4H490v5.4h12v27.6h5.8v-27.6H507.9z M530.4,141.4
	h-5.8v33h5.8V141.4z M556,174.4l14.3-33h-6.6l-10.5,25.1l-10.3-25.1h-6.7l14.3,33H556z M581.9,155.2v-8.4H600v-5.4h-23.9v33H600V169
	h-18.1v-8.4H598v-5.3h-16.1V155.2z"/>
<path class="st1 sportz" d="M321.7,90.1c-9.6-2.8-15.5-3.9-20.3-3.9c-2.8,0-4.4,0.5-4.4,2.2c0,2.2,2.9,2.2,9.1,3.7
	c9.9,2.4,19.3,6,19.3,17.9c0,11.3-8.7,18.3-24.2,18.3c-8.9,0-18.4-2.3-27.7-5.1l4.2-15.6c10.1,3.2,16.8,4.7,20.8,5
	c4.5,0.2,5-1.6,5-2.3c0-2-3.4-2.4-8.6-3.6c-13-3-19.1-6.8-19.1-17.1c0-12.5,9-19.1,24.8-19.1c6.8,0,16.5,1.2,24.4,3.6L321.7,90.1z
	 M380.9,93.5c0-15-9.2-22.6-25.9-22.6c-7.9,0-14.3,0.2-24,0.6V127h19.1v-11.4h4.9C371.6,115.6,380.9,107.6,380.9,93.5 M350.1,99.7
	V86.5h4.8c4.2,0,6.5,2.2,6.5,7c0,4-2.4,6.2-6.5,6.2H350.1z M443.9,99.2c0-17.4-12-29-30.1-29s-30.1,11.6-30.1,29s12,29,30.1,29
	S443.9,116.6,443.9,99.2 M424.4,99.2c0,7.2-4.3,11.9-10.6,11.9c-6.4,0-10.6-4.7-10.6-11.9c0-7.2,4.2-11.9,10.6-11.9
	C420.2,87.3,424.4,92,424.4,99.2 M474,113.9l7,13.1h22.1l-11.3-18.2c4.8-3.8,7.4-9.6,7.4-17c0-13.7-9-20.9-25.1-20.9
	c-8.3,0-15.5,0.2-24.8,0.6V127h19.1v-13.1h3.8H474z M468.3,98.9V86.5h4c5.1,0,7.4,1.9,7.4,6c0,3.9-2.3,6.5-7.4,6.5L468.3,98.9
	L468.3,98.9z M576.7,110.7l22-26.9V71.4h-44.5h-3.7h-48.6v16.3h16.6V127h19.1V87.8h12.9h3.7h17.4l-22.7,26.9V127h50.6v-16.3H576.7z
	 M620.8,107.7c-9.9,0-18.1-8.2-18.1-18.1s8.2-18.1,18.1-18.1c9.9,0,18.2,8.2,18.2,18.1S630.8,107.7,620.8,107.7z M620.8,75.1
	c-8,0-14.3,6.5-14.3,14.3c0,8,6.5,14.3,14.3,14.3c8,0,14.3-6.5,14.3-14.3C635.4,81.5,628.8,75.1,620.8,75.1z M618.9,91.7v7H616V81.1
	h4.9c2.2,0,4,0.4,5,1.3c1.1,0.9,1.6,2.2,1.6,3.7c0,2.2-1.1,3.7-3.3,4.6l4.9,7.7h-3.3l-4.2-7h-2.7V91.7z M618.9,89.3h2
	c1.3,0,2.2-0.3,2.9-0.7c0.7-0.4,0.9-1.3,0.9-2.2c0-0.9-0.3-1.7-0.9-2.2c-0.7-0.4-1.6-0.7-2.9-0.7h-2V89.3z"/>
<path class="st2" id="logo-path" d="M121.5,1.4C188.6,1.4,243,55.8,243,122.9c0,24.7-7.4,47.6-20,66.8c-6.5-18.4-21.2-29.6-34.8-38
	c-20.2-12.5-59.1-18.6-70.5-21.2c-11.4-2.6-25.9-4.7-25.4-12.9c0.5-8.3,16.6-12.4,38.3-8.3c21.8,4.1,51.3,21.2,51.3,21.2l38.9-51.3
	C172,48.1,140.4,46.6,118.6,46.6c-31,0-98.4,13-99.4,77.7c-1.2,75.1,82.9,78.8,106.2,82.9c23.3,4.1,28,10.4,26.4,16.1
	c-1.6,5.7-14.4,15.4-43.6,15.3c-27.6,0-50.3-8.3-70-27.3C14.8,188.9,0,157.7,0,122.9C0,55.8,54.4,1.4,121.5,1.4 M178.5,164.3
	c-6.9,0-12.5,5.6-12.5,12.5s5.6,12.5,12.5,12.5s12.5-5.6,12.5-12.5C191.1,169.9,185.5,164.3,178.5,164.3 M184.5,199.7h-12.1
	c-4.5,0-7.1,3.6-7.1,8.1V236c10.1-3.7,20.2-8.5,26.2-14.3v-13.9C191.6,203.3,189,199.7,184.5,199.7"/>
<g id="Layer_3">
</g>
</svg>
